<?xml version="1.0" encoding="UTF-8" standalone="no"?>
<!-- Created with Inkscape (http://www.inkscape.org/) -->

<svg
   width="210mm"
   height="297mm"
   viewBox="0 0 210 297"
   version="1.1"
   id="svg5"
   inkscape:version="1.1 (1:1.1+202105261517+ce6663b3b7)"
   sodipodi:docname="drawing.svg"
   xmlns:inkscape="http://www.inkscape.org/namespaces/inkscape"
   xmlns:sodipodi="http://sodipodi.sourceforge.net/DTD/sodipodi-0.dtd"
   xmlns:xlink="http://www.w3.org/1999/xlink"
   xmlns="http://www.w3.org/2000/svg"
   xmlns:svg="http://www.w3.org/2000/svg"
   xmlns:rdf="http://www.w3.org/1999/02/22-rdf-syntax-ns#"
   xmlns:cc="http://creativecommons.org/ns#"
   xmlns:dc="http://purl.org/dc/elements/1.1/">
  <title
     id="title1558">Cover Thesis</title>
  <sodipodi:namedview
     id="namedview7"
     pagecolor="#505050"
     bordercolor="#ffffff"
     borderopacity="1"
     inkscape:pageshadow="0"
     inkscape:pageopacity="0"
     inkscape:pagecheckerboard="1"
     inkscape:document-units="mm"
     showgrid="false"
     inkscape:zoom="1"
     inkscape:cx="369.5"
     inkscape:cy="355.5"
     inkscape:window-width="1920"
     inkscape:window-height="1032"
     inkscape:window-x="0"
     inkscape:window-y="25"
     inkscape:window-maximized="1"
     inkscape:current-layer="layer4" />
  <defs
     id="defs2">
    <linearGradient
       inkscape:collect="always"
       id="linearGradient1668">
      <stop
         style="stop-color:#6c1d45;stop-opacity:1;"
         offset="0"
         id="stop1664" />
      <stop
         style="stop-color:#6c1d45;stop-opacity:0;"
         offset="1"
         id="stop1666" />
    </linearGradient>
    <linearGradient
       inkscape:collect="always"
       xlink:href="#linearGradient1668"
       id="linearGradient1670"
       x1="202.33498"
       y1="289.78381"
       x2="7.6810722"
       y2="3.2164087"
       gradientUnits="userSpaceOnUse"
       gradientTransform="matrix(0.99995197,0,0,0.99991746,0.01764807,0.01819797)" />
  </defs>
  <g
     inkscape:groupmode="layer"
     id="layer2"
     inkscape:label="Dark Background"
     style="display:inline">
    <rect
       style="fill:#1a1a1a;fill-opacity:1;stroke-width:0.234063"
       id="rect1988"
       width="210.0139"
       height="297.02557"
       x="-0.0099656628"
       y="-0.0070168143" />
  </g>
  <g
     inkscape:groupmode="layer"
     id="layer3"
     inkscape:label="Pantone 22C  Background"
     style="display:inline">
    <rect
       style="fill:url(#linearGradient1670);fill-opacity:1;stroke-width:0.262031"
       id="rect1582"
       width="210.00745"
       height="297.01123"
       x="-0.0036050421"
       y="-0.0053902557" />
  </g>
  <g
     inkscape:label="Monigote"
     inkscape:groupmode="layer"
     id="layer1"
     style="display:inline">
    <path
       style="fill:none;stroke:#ffffff;stroke-width:0.264583px;stroke-linecap:butt;stroke-linejoin:miter;stroke-opacity:1"
       d="m 59.919218,250.09113 c -2.075635,-1.89893 -4.36046,-4.75933 -5.038799,-7.53433 -1.611685,-6.59322 1.007708,-22.67373 2.566945,-28.76724 1.670765,-6.52936 1.553337,-2.0178 1.566887,-4.60654 0.04069,-7.77441 0.581247,-28.21055 4.10701,-34.48735 0.53153,-0.94626 1.615181,-1.46012 2.314345,-2.29024 1.18835,-1.41094 1.905476,-3.17758 3.093829,-4.58852 5.123949,-6.08371 11.884866,-9.54589 19.249162,-12.17806 2.315705,-0.82769 4.565179,-2.03841 7.010672,-2.29751 5.759001,-0.61018 11.527361,0.49038 17.217421,0.98371 1.33329,0.1156 2.69665,-0.21018 4.01482,0.021 3.07559,0.53944 5.9339,2.05734 9.0216,2.52247 2.23114,0.33611 3.23442,-0.4964 5.33929,0.78585 1.7063,1.03943 3.07436,2.55307 4.58451,3.86125 4.86883,4.2177 6.24631,12.00105 8.35715,17.72705 0.32005,0.8682 1.14912,1.47363 1.5268,2.31836 2.13673,4.7792 3.85366,10.57584 4.62934,15.73302 0.79052,5.2558 -1.09895,11.01761 -0.0849,16.22843 0.26454,1.35941 1.2288,2.51226 1.52282,3.86561 0.21724,0.99993 -0.12413,2.05219 -0.0161,3.06972 0.77932,7.33803 1.91539,14.43659 -3.18245,20.74096 -1.84776,2.28507 -6.68011,5.38807 -9.56585,5.85351 -3.18134,0.51312 -30.25112,-0.24648 -32.4173,-0.96861 -1.94175,-0.64731 -4.0706,-2.98845 -5.23287,-4.55514 -2.411442,-3.25057 -2.636946,-24.43183 -1.411994,-28.62666 0.856956,-2.93464 2.195394,-3.74619 1.578964,-6.9145 -0.20747,-1.06636 -4.276582,-5.32116 -5.343898,-5.40014 -0.726847,-0.0538 -1.517351,0.87644 -1.969074,1.32346 -3.559548,3.52248 -8.475842,5.67951 -8.506063,11.48324 -0.01847,3.5469 1.59735,5.58131 3.033744,8.48287 0.343649,0.69418 0.405704,19.94125 -0.112374,21.46878 -0.290663,0.85701 -3.591684,8.71245 -3.797006,8.90977 -2.080358,1.99925 -16.585364,0.64438 -20.625686,0.62323"
       id="path44" />
    <path
       style="fill:none;stroke:#ffffff;stroke-width:0.264583px;stroke-linecap:butt;stroke-linejoin:miter;stroke-opacity:1"
       d="m 144.49512,166.83542 c 0.0201,-3.83032 -0.17874,-6.08049 0.88932,-9.98449 0.95785,-3.50118 3.06692,-6.62477 3.96679,-10.14129 0.47274,-1.84738 0.74445,-12.5339 0.0764,-14.59023 -0.50798,-1.56356 -1.61981,-1.7496 -2.25039,-3.02744 -0.91645,-1.85713 -1.81778,-5.38244 -2.26984,-7.70594 -0.19543,-1.00442 0.2924,-2.08449 0.0161,-3.06973 -0.37397,-1.3333 -1.19321,-2.52018 -1.52264,-3.86518 -1.2479,-5.09498 0.75015,-11.02389 -0.69777,-16.193928 -0.30853,-1.101646 -1.12271,-2.004478 -1.5188,-3.07776 -1.08705,-2.945612 -1.318,-6.355099 -2.26192,-9.237051 -0.11261,-0.343805 -0.86978,-0.425665 -0.76342,-0.771449 1.2035,-3.912425 9.30854,-4.869349 12.16701,-5.924497 3.04471,-1.123894 9.24451,-4.947102 12.8339,-3.724648 2.18957,0.745713 2.25908,5.588746 3.02806,7.672012 2.1141,5.727412 4.20917,11.808613 7.59375,16.943511 1.34402,2.03907 2.98994,3.68068 3.79557,6.14033 0.0583,0.17813 0.95596,5.41712 2.88236,4.59764 1.28198,-0.54534 5.70503,-8.52856 5.84507,-8.80517 0.47839,-0.94488 0.30936,-2.133147 0.78769,-3.078056 0.23442,-0.463095 2.82884,-3.28689 3.09794,-4.596744 0.76571,-3.726995 0.70421,-10.688368 0.0763,-14.581195 -0.62585,-3.880213 -6.04617,-16.642752 -9.86664,-19.218677 -1.89752,-1.279393 -2.01182,-0.576318 -4.57016,-1.553229 -6.61482,-2.525889 -13.11817,-6.249257 -20.06887,-7.83564 -3.46244,-0.790245 -27.19339,-0.725046 -30.67791,-0.160576 -1.83839,0.297807 -3.53088,1.285613 -5.38006,1.506744 -2.678,0.320246 -5.78466,-0.562174 -8.44685,-0.04421 -2.05544,0.39991 -4.87611,2.781398 -6.02851,4.483457 -0.8558,1.264005 -0.42845,9.985632 -0.0601,11.492312 0.0801,0.327536 1.07507,1.534311 0.7558,2.226167 -0.59979,1.299715 -3.9068,2.43065 -5.17456,2.849409 -8.363245,2.762504 -17.788931,-8.996444 -24.19919,-12.405902 -2.050896,-1.090822 -8.463825,2.570726 -10.406208,2.948638 -0.753316,0.146566 -1.614085,-0.351663 -2.302293,-0.01204 -1.896591,-0.431702 -1.935482,1.718749 -3.081776,2.286225 -5.344343,2.64573 -12.111644,2.455256 -17.702083,4.518334 -8.305072,3.064875 -15.299724,8.697203 -20.817233,15.248186 -1.826923,2.16912 -2.09081,4.682429 -3.873309,6.8868 -1.946879,2.407653 -4.451542,4.317754 -6.175604,6.874745 -0.922943,1.368842 -0.779396,2.281902 -0.787415,3.813842 -0.01803,3.4451 1.443547,2.84295 3.781968,3.63742 1.08899,0.36998 1.989006,1.18918 3.077996,1.55916 1.528554,0.51932 3.881678,0.1949 5.364843,0.79957 1.787075,0.72856 2.456972,2.06901 4.466479,1.55828 1.591588,-0.40452 4.688888,-1.67698 6.093934,-2.27046 2.642171,-1.11603 3.029741,-2.76174 5.396121,-4.57647 4.212511,-3.23049 3.14533,-1.46593 7.051506,-3.87895 1.705343,-1.05347 4.435184,-4.341497 6.832653,-2.58868 2.443461,1.786446 3.335925,10.93846 3.744981,13.91609 -2.785692,2.94301 1.256429,2.50431 1.523214,3.86229 0.474832,2.41696 0.333193,5.21355 0.731285,7.67938 -0.809004,1.98528 1.207365,3.03512 1.518779,4.62887 0.578496,2.96062 -0.100967,6.28456 0.719228,9.21319 0.308528,1.10165 1.210267,1.97612 1.518795,3.07776 0.916446,3.27231 3.737573,21.9841 2.171592,24.98229 -0.547722,1.04865 -2.152383,2.12997 -2.99666,2.96545"
       id="path46" />
    <path
       style="fill:none;stroke:#ffffff;stroke-width:0.264583px;stroke-linecap:butt;stroke-linejoin:miter;stroke-opacity:1"
       d="m 59.919218,250.09113 c -2.418,1.09699 -12.467423,4.90071 -13.229108,7.75307 -0.741749,2.7777 2.975536,9.8296 5.312468,11.4053 5.600171,3.77592 -6.099685,-5.58795 5.355953,3.09784 2.608294,1.97763 5.93317,8.96663 9.854279,7.7261 2.487805,-0.78706 16.961829,-13.49412 18.247021,-16.65897 0.490775,-1.20855 0.596418,-2.54282 0.787516,-3.83314 0.588061,-3.97066 -1.363252,-7.75973 -1.478565,-11.5422 -0.01556,-0.51045 1.010901,-0.31874 1.373899,-0.67796"
       id="path48" />
    <path
       style="fill:none;stroke:#ffffff;stroke-width:0.264583px;stroke-linecap:butt;stroke-linejoin:miter;stroke-opacity:1"
       d="m 113.00182,250.28883 c 2.22438,3.31647 6.91087,3.89759 9.58279,6.59763 3.77246,3.81216 1.45318,2.52176 -0.74808,3.06589 -0.66526,0.16445 0.46623,4.32836 0.74135,4.6086 3.4543,3.5185 7.99696,3.80777 12.02762,6.13822 10.87455,6.28746 2.91933,2.88272 13.65873,5.44772 6.01332,1.43624 11.52082,3.90533 14.08298,-3.61786 0.84118,-2.46994 -1.30299,-17.17805 -2.21391,-18.40211 -0.9779,-1.31407 -1.89747,-2.68893 -3.04964,-3.85322 -4.18925,-4.23334 -9.7481,-3.1962 -9.72736,-7.15739"
       id="path50" />
    <path
       style="fill:none;stroke:#000000;stroke-width:0.264583px;stroke-linecap:butt;stroke-linejoin:miter;stroke-opacity:1"
       d="m 82.927054,64.201465 c 2.260079,-1.309928 4.708311,-2.407959 6.585252,-4.265353"
       id="path52" />
    <path
       style="fill:none;stroke:#ffffff;stroke-width:0.264583px;stroke-linecap:butt;stroke-linejoin:miter;stroke-opacity:1"
       d="m 89.512306,59.936112 c 2.684047,-0.762296 5.442132,-1.300448 8.052138,-2.286886 0.570802,-0.215731 -0.846455,-1.962849 -0.564319,-2.492865 0.641834,-1.20574 2.487731,-0.583869 3.355895,-2.142791 1.0594,-1.902339 -0.830167,-5.487252 0.0392,-7.486764 0.59476,-1.367938 1.64722,-2.495016 2.32238,-3.825108 0.74758,-1.472753 0.41261,-7.698888 0.0481,-9.19004 -0.68223,-2.790938 -11.774605,-11.786008 -14.497625,-12.34545 -0.75174,-0.154445 -1.534861,-0.008 -2.302293,-0.01205 -1.020564,-0.516977 -1.963335,-1.230887 -3.061692,-1.55093 -2.008201,-0.585158 -5.627243,-0.02945 -7.674314,-0.04017 -4.204097,-0.02201 -9.801471,-1.391168 -12.242107,2.991538 -0.202083,0.362888 0.133864,0.85515 -0.0065,1.246069 -1.24637,3.470693 -3.015369,7.78213 -0.81798,11.488276 0.369009,0.622382 1.157816,0.920517 1.526828,1.542896 4.387032,7.399234 -3.503208,-3.176542 2.278192,4.616641 1.385067,1.867037 4.634392,2.409203 6.096241,4.627043 1.345097,2.040708 0.25708,1.294839 1.505328,3.816263 1.3833,2.794228 4.707218,6.286093 6.862694,8.477898 0.560155,0.569595 1.633559,0.28647 2.269662,0.769776 1.152244,0.875464 1.608222,3.016369 3.053657,3.085793 1.322342,0.06351 2.504371,-0.859425 3.756556,-1.289137 z"
       id="path54" />
    <path
       style="fill:#ffffff;stroke-width:0.353553"
       d=""
       id="path15969"
       transform="scale(0.26458333)" />
  </g>
  <g
     inkscape:groupmode="layer"
     id="layer4"
     inkscape:label="Text"
     style="display:inline">
    <text
       xml:space="preserve"
       style="font-style:normal;font-weight:normal;font-size:35.2778px;line-height:1.25;font-family:sans-serif;letter-spacing:0px;word-spacing:0px;fill:#000000;fill-opacity:1;stroke:none;stroke-width:0.264583"
       x="40.468597"
       y="144.05969"
       id="text5323"><tspan
         sodipodi:role="line"
         id="tspan5321"
         style="font-style:normal;font-variant:normal;font-weight:normal;font-stretch:normal;font-size:35.2778px;font-family:'CMU Serif';-inkscape-font-specification:'CMU Serif';fill:#ffffff;stroke-width:0.264583"
         x="40.468597"
         y="144.05969">THESIS</tspan></text>
  </g>
  <metadata
     id="metadata1556">
    <rdf:RDF>
      <cc:Work
         rdf:about="">
        <dc:title>Cover Thesis</dc:title>
        <dc:date>15/09/2021</dc:date>
        <dc:creator>
          <cc:Agent>
            <dc:title>hasecilu</dc:title>
          </cc:Agent>
        </dc:creator>
        <dc:rights>
          <cc:Agent>
            <dc:title>Open</dc:title>
          </cc:Agent>
        </dc:rights>
        <dc:publisher>
          <cc:Agent>
            <dc:title>hasecilu</dc:title>
          </cc:Agent>
        </dc:publisher>
      </cc:Work>
    </rdf:RDF>
  </metadata>
</svg>
